<?xml version="1.0" standalone="no"?>
<!DOCTYPE svg PUBLIC "-//W3C//DTD SVG 20010904//EN"
 "http://www.w3.org/TR/2001/REC-SVG-20010904/DTD/svg10.dtd">
<svg version="1.0" xmlns="http://www.w3.org/2000/svg"
 width="270.000000pt" height="270.000000pt" viewBox="0 0 270.000000 270.000000"
 preserveAspectRatio="xMidYMid meet">
<metadata>
Created by potrace 1.11, written by Peter Selinger 2001-2013
</metadata>
<g transform="translate(0.000000,270.000000) scale(0.100000,-0.100000)"
fill="#000000" stroke="none">
<path d="M596 2413 c-1 -1 -21 -3 -44 -4 -23 -2 -42 -7 -42 -11 0 -4 -7 -8
-15 -8 -8 0 -15 -5 -15 -10 0 -6 -11 -15 -24 -21 -13 -6 -34 -28 -47 -49 -13
-21 -27 -36 -30 -34 -3 2 -11 -8 -18 -23 -11 -24 -11 -25 4 -13 15 12 15 11 4
-14 -9 -18 -15 -23 -20 -14 -4 7 -10 10 -13 8 -4 -4 -12 -60 -15 -103 -1 -5
-5 -5 -11 -2 -9 6 -14 -8 -11 -27 0 -5 -3 -8 -9 -8 -5 0 -7 -8 -4 -17 5 -15 3
-15 -10 1 -18 22 -21 14 -6 -15 8 -14 7 -19 -3 -19 -7 0 -13 -8 -14 -17 -2
-25 -31 -90 -42 -98 -6 -3 -8 4 -6 16 2 12 1 19 -2 15 -7 -7 -13 -42 -14 -79
0 -13 -6 -16 -27 -12 l-27 5 25 -12 c25 -11 25 -11 2 -15 -26 -5 -30 -23 -4
-23 15 -1 15 -2 -2 -15 -11 -8 -16 -15 -12 -15 5 0 3 -7 -4 -15 -7 -8 -9 -15
-6 -15 4 0 0 -7 -8 -16 -9 -8 -16 -22 -16 -30 0 -8 -4 -14 -9 -14 -5 0 -8 12
-6 28 2 15 2 21 -1 14 -3 -6 -9 -10 -14 -7 -4 2 -7 -6 -7 -20 0 -14 7 -27 17
-30 13 -4 17 -18 19 -58 1 -33 7 -56 16 -63 8 -6 15 -20 15 -32 0 -11 3 -27 6
-36 7 -17 30 -22 36 -7 2 4 17 -5 33 -22 17 -16 25 -27 18 -23 -15 8 -27 -10
-12 -20 7 -4 21 -8 33 -9 11 -1 24 -3 29 -4 4 0 7 -10 7 -21 0 -11 5 -20 11
-20 5 0 8 -4 4 -9 -3 -5 0 -13 6 -17 8 -4 9 -3 5 4 -10 17 1 15 23 -5 11 -9
18 -20 15 -25 -3 -5 0 -7 8 -6 8 2 12 -4 10 -15 -2 -9 1 -16 5 -15 20 5 52
-15 57 -37 4 -14 11 -25 16 -25 17 0 60 -47 60 -66 0 -16 2 -17 10 -4 7 10 10
11 10 2 0 -7 11 -17 25 -22 14 -5 24 -13 23 -17 -5 -19 15 -53 32 -53 10 0 20
-7 24 -15 3 -8 9 -14 13 -13 10 4 98 -89 99 -105 1 -7 2 -16 3 -21 0 -5 9 -2
19 5 9 7 14 10 10 5 -4 -5 3 -17 15 -28 12 -11 16 -17 10 -13 -7 3 -13 2 -13
-3 0 -15 28 -22 34 -9 2 7 5 4 5 -6 1 -10 5 -16 10 -13 12 8 44 -31 36 -43 -3
-6 1 -19 11 -28 16 -16 16 -16 9 6 l-7 22 26 -22 c29 -25 36 -39 9 -18 -16 13
-17 12 -4 -3 7 -10 19 -18 27 -18 7 0 16 -9 19 -21 4 -11 9 -18 12 -16 7 8 99
-84 95 -95 -1 -5 7 -21 18 -35 12 -16 20 -20 20 -11 0 8 -4 18 -8 24 -4 5 27
-26 70 -69 71 -70 94 -98 68 -82 -5 3 -10 1 -10 -5 0 -7 7 -10 15 -7 8 4 17 2
20 -2 3 -5 28 -15 56 -21 30 -7 46 -16 39 -20 -8 -5 -7 -9 4 -13 9 -4 15 -3
15 1 -4 26 3 34 25 30 18 -4 27 1 35 19 10 21 22 28 44 24 4 0 6 5 5 11 -2 7
3 12 10 10 6 -1 11 4 10 10 -2 7 3 12 10 10 6 -1 11 4 10 10 -2 7 5 12 14 12
10 -1 14 4 11 12 -3 9 2 14 13 14 16 0 17 2 4 10 -13 9 -13 10 0 11 8 1 19 1
24 0 5 -1 6 5 3 14 -5 10 0 15 13 15 11 0 20 5 20 10 0 14 46 60 53 53 4 -3 9
6 13 21 3 14 10 24 14 21 5 -3 11 -1 15 5 4 6 11 8 16 4 6 -3 9 0 7 8 -2 7 0
13 5 13 4 0 16 15 27 33 11 17 26 32 34 32 13 0 31 27 28 42 -1 4 5 5 14 1 9
-3 14 0 12 8 -2 7 2 13 7 14 6 0 20 6 31 13 12 6 25 8 30 4 5 -4 2 1 -5 10
-11 15 -9 21 13 43 14 14 30 25 36 25 5 0 10 6 10 14 0 8 5 18 12 22 7 5 8 3
3 -6 -5 -9 -4 -11 3 -6 7 4 12 13 12 20 0 8 7 19 15 26 11 9 15 9 15 1 0 -7 5
-9 10 -6 6 4 8 11 5 16 -4 5 1 12 9 15 9 3 14 10 11 14 -5 8 24 25 38 22 4 -1
7 5 7 14 0 24 53 76 62 61 4 -7 11 -2 17 16 6 15 17 27 25 27 7 0 16 9 19 20
3 11 9 20 14 19 20 -3 27 2 13 11 -11 7 -9 11 11 19 15 5 29 17 33 27 4 9 9
14 13 10 7 -6 63 52 63 66 0 4 10 8 23 8 13 0 17 3 11 8 -8 4 -1 17 19 37 17
17 27 23 22 15 -8 -13 -7 -13 11 0 10 8 25 23 32 33 7 9 18 15 23 12 5 -4 9 4
9 16 0 12 12 32 26 46 23 21 30 40 38 108 1 11 -2 31 -7 45 -8 22 -13 57 -16
99 -1 8 -7 11 -17 7 -8 -3 -12 -2 -9 4 3 6 1 10 -5 10 -6 0 -8 5 -5 11 4 5 0
18 -8 27 -13 16 -30 53 -27 61 1 2 -4 7 -11 11 -7 5 -12 22 -11 39 1 28 -3 33
-25 30 -12 -2 -21 26 -19 58 1 17 0 31 -3 31 -20 -2 -31 3 -26 12 3 6 1 10 -5
10 -7 0 -10 6 -7 13 3 7 -4 19 -15 26 -11 7 -17 15 -14 18 3 3 1 14 -4 24 -7
11 -6 19 1 21 6 2 2 14 -10 28 -18 21 -20 22 -15 5 5 -16 4 -17 -5 -5 -6 8
-11 22 -11 31 0 9 -7 19 -15 23 -8 3 -15 14 -15 26 0 11 -14 33 -31 49 -18 17
-26 32 -20 36 6 3 11 12 10 18 0 9 -2 9 -6 0 -6 -16 -30 -17 -35 -2 -2 7 -251
11 -817 12 -447 1 -814 1 -815 0z m1309 -1553 c-3 -5 -12 -10 -18 -10 -7 0 -6
4 3 10 19 12 23 12 15 0z"/>
<path d="M430 2375 c0 -17 2 -18 24 -9 23 9 20 24 -4 24 -11 0 -20 -7 -20 -15z"/>
<path d="M2285 2381 c-3 -5 -2 -12 3 -15 5 -3 9 1 9 9 0 17 -3 19 -12 6z"/>
<path d="M327 2268 c-3 -10 -2 -18 2 -18 3 0 11 8 18 18 9 15 8 19 -2 19 -8 0
-16 -9 -18 -19z"/>
<path d="M2365 2260 c-3 -5 -1 -10 4 -10 6 0 11 5 11 10 0 6 -2 10 -4 10 -3 0
-8 -4 -11 -10z"/>
<path d="M285 2151 c-6 -11 13 -26 22 -17 4 3 1 6 -6 6 -7 0 -9 5 -6 10 3 6 4
10 1 10 -3 0 -7 -4 -11 -9z"/>
<path d="M2430 2109 c0 -5 5 -7 10 -4 6 3 10 8 10 11 0 2 -4 4 -10 4 -5 0 -10
-5 -10 -11z"/>
<path d="M229 2028 c-6 -20 -6 -39 0 -42 4 -3 7 6 7 20 0 20 -4 32 -7 22z"/>
<path d="M2515 1960 c3 -5 8 -10 11 -10 2 0 4 5 4 10 0 6 -5 10 -11 10 -5 0
-7 -4 -4 -10z"/>
<path d="M2573 1824 c0 -16 13 -19 21 -5 3 5 0 11 -7 14 -8 3 -14 -1 -14 -9z"/>
<path d="M103 1770 c-28 -11 -29 -15 -4 -17 11 -1 22 5 25 13 3 8 4 14 3 13
-1 0 -12 -4 -24 -9z"/>
<path d="M2656 1599 c0 -21 4 -42 7 -46 4 -3 6 13 5 36 -1 23 -4 44 -7 46 -4
2 -6 -14 -5 -36z"/>
<path d="M2623 1565 c0 -8 4 -15 9 -15 4 0 8 4 8 9 0 6 -4 12 -8 15 -5 3 -9
-1 -9 -9z"/>
<path d="M2691 1564 c0 -11 3 -14 6 -6 3 7 2 16 -1 19 -3 4 -6 -2 -5 -13z"/>
<path d="M315 1310 c-4 -7 -1 -16 6 -21 17 -10 26 8 11 23 -6 6 -12 6 -17 -2z"/>
<path d="M2390 1270 c-9 -6 -10 -10 -3 -10 6 0 15 5 18 10 8 12 4 12 -15 0z"/>
<path d="M2265 1181 c-3 -5 -1 -12 5 -16 5 -3 10 1 10 9 0 18 -6 21 -15 7z"/>
<path d="M465 1159 c-9 -14 -2 -20 14 -10 8 6 9 11 3 15 -6 3 -14 1 -17 -5z"/>
<path d="M2230 1161 c0 -5 7 -12 16 -15 14 -5 15 -4 4 9 -14 17 -20 19 -20 6z"/>
<path d="M2100 1031 c0 -5 5 -13 10 -16 6 -3 10 -2 10 4 0 5 -4 13 -10 16 -5
3 -10 2 -10 -4z"/>
<path d="M610 1005 c7 -9 15 -13 17 -11 7 7 -7 26 -19 26 -6 0 -6 -6 2 -15z"/>
<path d="M650 1008 c0 -9 7 -19 16 -22 15 -6 15 -4 3 11 -7 10 -15 20 -16 22
-2 2 -3 -3 -3 -11z"/>
<path d="M1958 909 c-22 -12 -23 -36 -3 -36 9 0 14 6 11 12 -2 7 1 18 7 24 14
14 8 14 -15 0z"/>
<path d="M750 871 c0 -6 5 -13 10 -16 6 -3 10 1 10 9 0 9 -4 16 -10 16 -5 0
-10 -4 -10 -9z"/>
<path d="M720 863 c0 -6 8 -17 18 -24 16 -13 16 -13 2 6 -8 11 -16 22 -17 24
-2 2 -3 0 -3 -6z"/>
<path d="M890 726 c0 -8 7 -16 15 -20 17 -6 18 -4 9 18 -8 20 -24 21 -24 2z"/>
<path d="M940 711 c0 -5 5 -13 10 -16 6 -3 10 -2 10 4 0 5 -4 13 -10 16 -5 3
-10 2 -10 -4z"/>
<path d="M1030 625 c0 -2 10 -10 23 -16 20 -11 21 -11 8 4 -13 16 -31 23 -31
12z"/>
<path d="M1030 581 c0 -5 7 -11 15 -15 9 -3 15 0 15 9 0 8 -7 15 -15 15 -8 0
-15 -4 -15 -9z"/>
<path d="M1150 495 c0 -9 4 -14 9 -11 4 3 13 -6 20 -20 6 -14 16 -22 21 -19
17 10 11 23 -20 45 -26 18 -30 19 -30 5z"/>
</g>
</svg>
